<?xml version="1.0" encoding="utf-8"?>
<!-- Generator: Adobe Illustrator 27.5.0, SVG Export Plug-In . SVG Version: 6.00 Build 0)  -->
<svg version="1.1" xmlns="http://www.w3.org/2000/svg" xmlns:xlink="http://www.w3.org/1999/xlink" x="0px" y="0px"
	 viewBox="0 0 750 500" style="enable-background:new 0 0 750 500;" xml:space="preserve">
<g id="BACKGROUND">
	<rect style="fill:#FFFFFF;" width="750" height="500"/>
</g>
<g id="OBJECTS">
	<path style="fill:#E0EBFC;" d="M607.929,55.451c-2.541-1.943-5.124-3.834-7.751-5.668C545.682,11.72,463.6,4.64,408.922,45.968
		c-15.624,11.809-28.604,26.965-44.93,37.781c-47.069,31.183-108.006,20.755-157.787,44.876
		c-49.257,23.867-95.933,59.538-114.897,112.828c-11.298,31.746-8.894,79.678,21.692,101.443
		c11.45,8.148,25.389,12.055,39.262,14.305c30.748,4.987,62.276,2.523,93.16,6.578c55.538,7.294,105.958,35.1,159.055,52.941
		c99.654,33.483,298.941,52.057,318.598-93.589c4.767-35.32-1.597-71.288-11.638-105.485
		C693.435,156.339,659.551,94.939,607.929,55.451z"/>
	<g>
		<g>
			<g>
				<path style="fill:#1C150D;" d="M570.183,67.459c-9.73-2.306-21.419,5.67-28.374,13.358
					c-9.241,10.215-9.853,21.821-10.512,32.733c-0.696,11.544,1.303,26.324,1.271,37.905c-0.073,25.947-2.647,43.092-9.798,56.001
					l82.439-8.731l-1.298-112.528L570.183,67.459z"/>
				<path style="fill:#D87D55;" d="M565.862,145.764c0,0,1.93,23.023,1.245,24.343c-0.685,1.32-6.275,2.604-6.275,2.604
					s-44.214,34.744,20.658,34.744s39.433-41.601,39.433-41.601s-8.798-2.803-10.983-8.178c-2.653-6.524-8.672-44.127-8.672-44.127
					l-31.873,11.891L565.862,145.764z"/>
				<path style="fill:#D87D55;" d="M561.786,74.368c-8.788-0.054-11.467,3.472-16.806,10.379
					c-11.542,14.932-7.932,33.278-3.386,49.254c1.723,6.053,4.93,15.191,10.115,18.757c6.699,4.606,14.135,3.604,21.238-0.352
					c21.604-12.035,28.677-40.969,16.673-61.483c-5.13-8.767-14.219-15.316-24.437-16.373
					C564.079,74.437,562.942,74.375,561.786,74.368z"/>
				<path style="fill:#1C150D;" d="M607.99,84.062c3.111,4.487,5.593,9.464,7.627,14.338c5.645,13.528,10.246,27.324,15.135,41.138
					c0.008,0.023,0.017,0.047,0.025,0.071c3.465,9.781,10.337,29.364,10.337,29.364s-12.042,0.063-25.993-5.902
					c-18.755-8.019-21.786-47.981-21.786-47.981s-7.188-0.741-15.031-4.075c-5.565-2.366-18.824-11.775-24.028-23.646
					c-9.164,2.84-17.611,12.537-16.326,30.525c-2.163-1.049-6.466-6.078-0.847-22.948c4.706-14.129,21.686-29.501,33.08-27.487
					c7.043-2.748,16.615,0.3,22.862,3.243C599.241,73.621,604.105,78.459,607.99,84.062z"/>
				<path style="fill:none;stroke:#000000;stroke-width:1.5;stroke-miterlimit:10;" d="M552.107,119.279
					c0.461,2.495,0.526,5.075,0.206,7.608c-0.241,1.903-1.078,3.585-1.408,5.424c-0.123,0.684-0.058,1.431,0.321,1.994
					c1.03,1.531,3.609,1.577,5.199,1.9"/>
				<path d="M567.124,120.152c0.473,1.641,0.001,3.218-1.054,3.522c-1.055,0.304-2.293-0.781-2.765-2.422
					c-0.473-1.641-0.001-3.218,1.053-3.522C565.413,117.426,566.651,118.51,567.124,120.152z"/>
				<path d="M546.572,123.642c0.473,1.641,0.001,3.218-1.053,3.522c-1.055,0.304-2.293-0.78-2.766-2.422
					c-0.473-1.641-0.001-3.218,1.053-3.522C544.861,120.916,546.099,122.001,546.572,123.642z"/>
				<path style="fill:none;stroke:#000000;stroke-width:1.5;stroke-miterlimit:10;" d="M555.362,141.293
					c3.326,0.402,6.815-1.27,8.585-4.115"/>
				<path style="fill:none;stroke:#000000;stroke-width:1.5;stroke-miterlimit:10;" d="M557.931,108.274
					c3.855,3.328,10.425,4.598,16.946,6.057"/>
				<path style="fill:none;stroke:#000000;stroke-width:1.5;stroke-miterlimit:10;" d="M537.254,116.166
					c2.323-1.032,6.726-3.407,9.411-6.294"/>
				<path style="fill:none;stroke:#000000;stroke-width:1.5;stroke-miterlimit:10;" d="M566.345,155.814
					c11.937-3.036,17.237-10.208,21.761-17.422"/>
				<g>
					<path style="fill:#D87D55;" d="M583.408,117.924c0.954-3.715,4.392-6.284,7.141-6.187c4.077,0.144,6.523,3.982,7.132,7.549
						c0.554,3.248,0.17,6.18-1.441,9.196c-1.513,2.833-4.958,6.144-8.232,5.923c-2.229-0.15-3.755-2.659-4.17-4.583"/>
					
						<line style="fill:none;stroke:#000000;stroke-width:1.5;stroke-miterlimit:10;" x1="585.462" y1="126.804" x2="593.335" y2="118.09"/>
					<path style="fill:none;stroke:#000000;stroke-width:1.5;stroke-miterlimit:10;" d="M583.838,130.661
						c0.554,1.01,2.224,4.416,5.736,3.691c1.596-0.33,4.756-1.423,7.355-7.34"/>
					<path style="fill:none;stroke:#000000;stroke-width:1.5;stroke-miterlimit:10;" d="M583.127,117.755
						c0.596-1.326,2.762-6.592,8.918-5.786"/>
				</g>
				<path style="fill:none;stroke:#000000;stroke-width:1.5;stroke-miterlimit:10;" d="M554.276,87.369
					c3.691-6.931,10.104-16.935,16.024-19.317"/>
			</g>
			<g>
				<g>
					<path style="fill:#755B3C;" d="M546.515,315.342l-2.685,20.789l-50.102,134.237c0,0,90.69,0,89.4,0
						s38.812-99.928,39.295-101.917c0.483-1.989,8.278-17.212,3.414-53.108"/>
					<path style="fill:none;stroke:#5B452C;stroke-width:1.5;stroke-miterlimit:10;" d="M554.658,336.279
						c0,0-3.422,19.263-3.96,24.643c-0.538,5.38-38.601,109.51-38.601,109.51"/>
					<path style="fill:#755B3C;" d="M578.78,364.571l9.326,19.77l17.103,86.027h78.578l-9.536-81.293c0,0,0.554-23.05-4.761-38.511
						c-5.315-15.461-15.996-30.834-15.996-30.834l-72.623-31.717L578.78,364.571z"/>
					<path style="fill:none;stroke:#5B452C;stroke-width:1.5;stroke-miterlimit:10;" d="M612.648,336.131
						c0,0,8.425,32.282,8.11,36.717c-0.315,4.435,8.623,97.585,8.623,97.585"/>
					
						<line style="fill:none;stroke:#000000;stroke-width:1.5;stroke-miterlimit:10;" x1="543.829" y1="336.131" x2="663.203" y2="336.131"/>
					<path style="fill:none;stroke:#000000;stroke-width:1.5;stroke-miterlimit:10;" d="M597.541,431.798
						c0.206-1.066-9.435-47.457-9.435-47.457l-6.204-13.151"/>
					
						<line style="fill:none;stroke:#000000;stroke-width:1.5;stroke-miterlimit:10;" x1="571.811" y1="336.131" x2="570.064" y2="315.342"/>
					<circle style="fill:none;stroke:#000000;stroke-width:1.5;stroke-miterlimit:10;" cx="578.78" cy="326.331" r="2.325"/>
					<path style="fill:none;stroke:#000000;stroke-width:1.5;stroke-miterlimit:10;" d="M618.625,336.279
						c10.225,11.158,24.583,18.438,39.626,20.094"/>
				</g>
				<path style="fill:#FFFFFF;" d="M552.748,182.472c18.829,26.801,52.339,8.775,74.077-3.208l6.456-10.86
					c0,0,24.108,13.596,23.67,13.997c-0.438,0.401-3.068,135.845-3.068,135.845h-106.98c0,0-12.563-42.948-12.185-53.91
					c0.378-10.962,6.253-40.49,7.479-48.081c1.227-7.591-2.382-29.945-2.382-29.945L552.748,182.472z"/>
				<path style="fill:none;stroke:#000000;stroke-width:1.5;stroke-miterlimit:10;" d="M551.946,192.945
					c6.987,4.874,15.053,8.511,23.555,9.585c18.773,2.37,38.577-8.387,53.881-18.061"/>
				<path style="fill:#FCB05E;" d="M560.831,172.712c0,0-30.369,5.401-41.536,18.599c-11.725,13.857-42.093,76.866-42.093,76.866
					l-12.703-1.705l-32.101,11.158c0,0,22.513,35.115,39.6,41.828c17.087,6.713,34.824-0.389,48.138-21.2
					c13.313-20.811,34.141-67.477,34.141-67.477"/>
				<path style="fill:#FCB05E;" d="M532.975,209.531c1.564,4.739,1.246,9.861,1.046,14.847c-0.451,11.237-5.215,28.005-4.04,39.189
					c1.262,12.018,3.636,32.852,4.349,44.915c1.047,17.743-18.598,87.983-18.598,87.983l29.87-3.25
					c3.769-0.41,6.733-3.404,7.097-7.178c2.284-23.667,10.05-104.649,10.384-114.937c0.391-12.068-2.251-98.389-2.251-98.389
					l-26.502,9.236L532.975,209.531z"/>
				<path style="fill:#FCB05E;" d="M617.024,163.908c-6.126,36.85-14.258,73.796-13.451,111.161
					c0.318,14.704,12.072,90.21,15.372,111.162c0.499,3.168,3.107,5.574,6.305,5.823l58.537,4.565l-19.605-99.806l9.624-100.162
					l-15.327-23.526L617.024,163.908z"/>
				<path style="fill:none;stroke:#000000;stroke-width:1.5;stroke-miterlimit:10;" d="M531.993,280.264
					c-1.164-10.049-3.401-23.588-1.603-32.392c0.707-3.464,1.736-6.853,2.518-10.301c1.917-8.449,2.334-17.236,1.228-25.829"/>
				<path style="fill:none;stroke:#000000;stroke-width:1.5;stroke-miterlimit:10;" d="M477.384,268.18
					c5.389,2.341,10.52,5.276,15.27,8.734c3.662,2.666,12.043,10.556,13.552,14.827"/>
				
					<line style="fill:none;stroke:#000000;stroke-width:1.5;stroke-miterlimit:10;" x1="440.398" y1="274.849" x2="454.698" y2="293.347"/>
				<path d="M440.607,280.209c0.212,0.589-0.241,1.291-1.012,1.569c-0.771,0.277-1.568,0.025-1.78-0.564
					c-0.212-0.589,0.241-1.291,1.012-1.569C439.599,279.368,440.395,279.62,440.607,280.209z"/>
				<path d="M444.276,285.265c0.212,0.589-0.241,1.291-1.012,1.569c-0.771,0.278-1.568,0.025-1.78-0.564
					c-0.212-0.589,0.241-1.291,1.012-1.569C443.268,284.424,444.064,284.677,444.276,285.265z"/>
				<path style="fill:none;stroke:#000000;stroke-width:1.5;stroke-miterlimit:10;" d="M661.564,334.708l-34.136-2.33l4.617,29.822
					c0.55,3.552,3.459,6.266,7.04,6.568l28.692,2.423"/>
				<path style="fill:none;stroke:#CE863E;stroke-width:1.5;stroke-miterlimit:10;" d="M673.005,395.779l-15.773-80.83
					c-2.541-13.023-3.191-26.344-1.931-39.553l7.723-80.909"/>
				<path style="fill:none;stroke:#000000;stroke-width:1.5;stroke-miterlimit:10;" d="M531.1,333.685l16.267-1.308l-4.637,29.339
					c-0.584,3.693-3.587,6.525-7.307,6.892l-12.652,1.247"/>
				<path style="fill:none;stroke:#000000;stroke-width:1.5;stroke-miterlimit:10;" d="M606.915,251.228
					c0,0,12.647-43.772,32.664-82.305"/>
				<path style="fill:none;stroke:#000000;stroke-width:1.5;stroke-miterlimit:10;" d="M560.627,251.228
					c0,0-15.041-45.115-14.507-74.772"/>
			</g>
			<g>
				<g>
					<polygon style="fill:#FFFFFF;" points="523.693,274.195 449.456,281.687 415.387,177.789 489.625,170.298 					"/>
					
						<line style="fill:none;stroke:#DFE1ED;stroke-width:3;stroke-miterlimit:10;" x1="442.393" y1="219.947" x2="488.42" y2="215.302"/>
					
						<line style="fill:none;stroke:#DFE1ED;stroke-width:3;stroke-miterlimit:10;" x1="455.89" y1="231.807" x2="486.593" y2="228.709"/>
					<g>
						<path style="fill:#D85266;" d="M430.346,196.176c0.591-0.061,1.104-0.035,1.539,0.076c0.436,0.112,0.798,0.31,1.087,0.596
							c0.289,0.286,0.512,0.661,0.668,1.127c0.106,0.315,0.142,0.596,0.108,0.843c-0.034,0.247-0.115,0.462-0.245,0.645
							c-0.129,0.182-0.284,0.337-0.462,0.463l2.923,2.809l-1.532,0.157l-2.442-2.488l-0.735,0.076l0.887,2.647l-1.381,0.142
							l-2.313-6.898L430.346,196.176z M430.65,197.385l-0.419,0.043l0.625,1.864l0.445-0.046c0.457-0.047,0.758-0.161,0.901-0.344
							c0.143-0.182,0.162-0.431,0.056-0.745c-0.11-0.327-0.294-0.549-0.553-0.665C431.447,197.374,431.095,197.339,430.65,197.385z"
							/>
						<path style="fill:#D85266;" d="M440.533,202.267l-3.751,0.385l-2.313-6.898l3.751-0.385l0.402,1.198l-2.37,0.243l0.507,1.515
							l2.205-0.226l0.402,1.199l-2.206,0.226l0.596,1.779l2.37-0.243L440.533,202.267z"/>
						<path style="fill:#D85266;" d="M445.094,199.817c0.137,0.409,0.163,0.774,0.077,1.095c-0.086,0.321-0.28,0.582-0.583,0.783
							c-0.303,0.2-0.71,0.326-1.221,0.379c-0.226,0.023-0.452,0.03-0.677,0.021c-0.226-0.01-0.448-0.035-0.666-0.076
							c-0.218-0.041-0.431-0.098-0.64-0.171l-0.456-1.359c0.358,0.113,0.722,0.211,1.094,0.293c0.372,0.082,0.721,0.107,1.048,0.073
							c0.226-0.023,0.397-0.073,0.514-0.15c0.117-0.077,0.188-0.174,0.214-0.29c0.026-0.116,0.015-0.245-0.033-0.387
							c-0.058-0.173-0.162-0.315-0.313-0.426c-0.151-0.112-0.34-0.211-0.567-0.298c-0.227-0.087-0.482-0.18-0.764-0.278
							c-0.176-0.06-0.372-0.135-0.587-0.225c-0.215-0.09-0.428-0.206-0.642-0.347c-0.213-0.141-0.409-0.318-0.587-0.533
							c-0.178-0.214-0.319-0.479-0.425-0.793c-0.138-0.412-0.167-0.774-0.087-1.085c0.08-0.311,0.259-0.561,0.538-0.751
							c0.279-0.19,0.644-0.308,1.096-0.354c0.339-0.035,0.676-0.026,1.011,0.026c0.335,0.052,0.697,0.139,1.086,0.262l-0.064,1.183
							c-0.343-0.098-0.645-0.171-0.907-0.217c-0.262-0.046-0.515-0.057-0.762-0.031c-0.172,0.017-0.309,0.062-0.412,0.132
							c-0.102,0.071-0.167,0.162-0.194,0.274c-0.027,0.112-0.018,0.237,0.029,0.375c0.055,0.164,0.146,0.297,0.274,0.399
							c0.128,0.102,0.301,0.196,0.518,0.281c0.218,0.085,0.486,0.183,0.806,0.293c0.389,0.132,0.731,0.277,1.028,0.434
							c0.297,0.157,0.55,0.351,0.759,0.581C444.807,199.159,444.973,199.455,445.094,199.817z"/>
						<path style="fill:#D85266;" d="M446.925,201.61l-2.313-6.898l1.381-0.142l2.312,6.898L446.925,201.61z"/>
						<path style="fill:#D85266;" d="M451.103,197.175l2.584-0.265l1.199,3.576c-0.302,0.155-0.625,0.286-0.969,0.395
							c-0.345,0.109-0.75,0.187-1.216,0.235c-0.647,0.067-1.242-0.012-1.784-0.236c-0.542-0.224-1.019-0.589-1.431-1.093
							c-0.412-0.505-0.747-1.142-1.005-1.913c-0.242-0.723-0.321-1.363-0.235-1.918c0.086-0.555,0.333-1.004,0.742-1.345
							c0.409-0.341,0.979-0.549,1.71-0.624c0.344-0.035,0.698-0.031,1.06,0.013c0.362,0.044,0.701,0.115,1.016,0.213l-0.067,1.217
							c-0.235-0.087-0.492-0.153-0.772-0.199c-0.28-0.046-0.559-0.055-0.838-0.026c-0.401,0.041-0.716,0.175-0.947,0.4
							c-0.23,0.226-0.367,0.522-0.412,0.889c-0.044,0.367,0.013,0.789,0.172,1.264c0.151,0.45,0.342,0.843,0.575,1.179
							c0.232,0.336,0.506,0.589,0.822,0.76c0.315,0.171,0.674,0.236,1.074,0.195c0.196-0.02,0.358-0.047,0.487-0.082
							c0.128-0.034,0.248-0.069,0.359-0.103l-0.483-1.439l-1.234,0.126L451.103,197.175z"/>
						<path style="fill:#D85266;" d="M462.321,200.03l-1.755,0.18l-4.583-4.928l-0.04,0.004c0.084,0.216,0.168,0.434,0.251,0.653
							c0.083,0.219,0.165,0.438,0.247,0.655c0.082,0.218,0.165,0.436,0.247,0.656l1.088,3.246l-1.234,0.127l-2.313-6.898
							l1.742-0.179l4.561,4.876l0.031-0.003c-0.078-0.213-0.156-0.425-0.236-0.635c-0.08-0.21-0.158-0.419-0.237-0.629
							c-0.078-0.21-0.155-0.42-0.232-0.63l-1.095-3.265l1.243-0.127L462.321,200.03z"/>
						<path style="fill:#D85266;" d="M467.949,199.453l-1.022-1.594l-2.374,0.244l0.078,1.69l-1.488,0.153l-0.023-7.162l1.689-0.173
							l4.629,6.69L467.949,199.453z M466.185,196.667l-1.01-1.556c-0.066-0.104-0.151-0.238-0.256-0.401
							c-0.106-0.163-0.212-0.329-0.32-0.499c-0.108-0.17-0.198-0.318-0.271-0.443c0.013,0.132,0.026,0.296,0.038,0.491
							c0.012,0.196,0.022,0.381,0.032,0.555c0.01,0.175,0.016,0.3,0.019,0.374l0.07,1.653L466.185,196.667z"/>
						<path style="fill:#D85266;" d="M472.761,198.959l-1.381,0.142l-1.904-5.681l-1.768,0.182l-0.408-1.218l4.918-0.504
							l0.408,1.217l-1.769,0.181L472.761,198.959z"/>
						<path style="fill:#D85266;" d="M475.535,198.675l-2.313-6.898l1.381-0.141l2.312,6.898L475.535,198.675z"/>
						<path style="fill:#D85266;" d="M483.329,194.298c0.178,0.532,0.278,1.022,0.299,1.47c0.021,0.448-0.042,0.843-0.191,1.184
							c-0.148,0.341-0.389,0.615-0.722,0.824c-0.332,0.208-0.764,0.339-1.296,0.394c-0.531,0.055-1.02,0.018-1.466-0.111
							c-0.446-0.128-0.848-0.337-1.207-0.625c-0.359-0.288-0.675-0.645-0.946-1.069c-0.271-0.424-0.497-0.904-0.676-1.439
							c-0.239-0.714-0.337-1.347-0.293-1.9c0.043-0.553,0.246-0.999,0.609-1.339c0.362-0.34,0.898-0.546,1.608-0.619
							c0.707-0.072,1.337,0.014,1.891,0.26c0.554,0.246,1.031,0.623,1.43,1.132C482.769,192.968,483.089,193.581,483.329,194.298z
							 M478.576,194.786c0.161,0.481,0.357,0.89,0.588,1.226c0.231,0.336,0.5,0.585,0.806,0.747
							c0.306,0.162,0.652,0.223,1.039,0.184c0.392-0.04,0.678-0.166,0.859-0.379c0.181-0.212,0.268-0.498,0.263-0.857
							c-0.005-0.359-0.088-0.779-0.25-1.26c-0.242-0.723-0.561-1.28-0.956-1.669c-0.395-0.389-0.885-0.554-1.47-0.494
							c-0.389,0.04-0.675,0.166-0.857,0.378c-0.182,0.212-0.272,0.498-0.27,0.858C478.332,193.879,478.414,194.301,478.576,194.786z
							"/>
						<path style="fill:#D85266;" d="M491.617,197.024l-1.755,0.18l-4.583-4.928l-0.04,0.004c0.084,0.216,0.168,0.434,0.251,0.653
							c0.082,0.219,0.165,0.438,0.247,0.656c0.082,0.218,0.165,0.436,0.247,0.656l1.088,3.246l-1.234,0.127l-2.312-6.898
							l1.742-0.179l4.561,4.876l0.031-0.003c-0.078-0.213-0.156-0.425-0.236-0.635c-0.08-0.21-0.158-0.42-0.236-0.63
							c-0.078-0.21-0.156-0.42-0.232-0.63l-1.094-3.265l1.243-0.127L491.617,197.024z"/>
					</g>
				</g>
				<g>
					<path style="fill:#D87D55;" d="M578.78,261.973c0,0-26.419-6.249-27.584-6.944c-8.261-4.934-15.485-11.632-24.601-14.938
						c-3.05-1.106-6.261-1.809-9.244-3.067c-3.453-1.456-6.876-3.141-6.876-3.141l2.702,8.24c0,0-8.959-0.196-14.361-2.633
						c-2.053-0.927-7.706-3.541-9.909-4.08c-2.203-0.539-4.809-0.143-5.017,1.135c-0.208,1.277,3.045,3.818,3.045,3.818
						s-4.738-1.697-6.008-0.035c-1.013,1.327,5.148,6.934,5.148,6.934s-2.16-0.289-3.031,0.272
						c-0.864,0.556-0.398,1.837,0.177,2.653c1.828,2.593,6.758,6.48,6.758,6.48s-3.381-0.634-3.164,1.116
						c0.116,0.932,1.472,2.274,2.181,2.914c7.565,6.82,16.272,12.867,25.714,17.316c9.971,4.697,33.527,12.871,44.202,15.336"/>
					<path style="fill:none;stroke:#000000;stroke-width:1.5;stroke-miterlimit:10;" d="M512.097,242.123
						c2.897-0.105,7.789-0.053,10.673-0.353"/>
					<path style="fill:none;stroke:#000000;stroke-width:1.5;stroke-miterlimit:10;" d="M486.586,240.472
						c1.445,0.963,2.891,1.927,4.336,2.89c6.152,4.101,12.597,8.315,19.933,9.244"/>
					<path style="fill:none;stroke:#000000;stroke-width:1.5;stroke-miterlimit:10;" d="M486.069,247.568
						c6.077,5.244,12.335,10.597,19.881,13.334"/>
					<path style="fill:none;stroke:#000000;stroke-width:1.5;stroke-miterlimit:10;" d="M489.518,256.841
						c5.235,4.263,10.696,8.224,16.688,11.335"/>
				</g>
				<path style="fill:#FCB05E;" d="M644.656,169.889c13.062,3.067,22.092,3.019,29.623,12.137
					c6.405,7.753,7.605,14.917,7.769,24.721c0.275,16.496-5.709,29.171-11.857,47.487c-8.675,25.846-16.65,49.992-29.077,59.37
					c-17.716,13.368-97.285-17.803-97.285-17.803l14.96-39.427l53.859,11.312l20.948-52.137"/>
				<polyline style="fill:none;stroke:#000000;stroke-width:1.5;stroke-miterlimit:10;" points="558.789,256.374 612.648,267.686 
					633.596,215.548 				"/>
				<path style="fill:none;stroke:#000000;stroke-width:1.5;stroke-miterlimit:10;" d="M670.191,254.234
					c-8.675,25.846-16.65,49.992-29.077,59.37c-17.716,13.368-97.285-17.803-97.285-17.803"/>
				<g>
					<path style="fill:#D87D55;" d="M452.464,228.214c-0.322-0.997-3.264,0.298-3.264,0.298c1.073-1.252,3.231-4.239,2.23-5.923
						c-0.457-0.769-2.329-0.036-3.006-0.028c1.017-1.276,2.228-3.155,1.071-3.587c-1.158-0.432-4.867-0.447-6.444-0.031
						c1.064-0.36,2.521-2.472,1.465-2.753c-1.055-0.282-3.502-0.629-4.623-0.552c-3.185,0.22-6.371,0.44-9.55,0.737
						c-0.917,0.086-1.855,0.184-2.683,0.587c-1.006,0.489-1.75,1.377-2.462,2.239c-4.125,4.994-8.464,10.548-8.507,17.025
						c-0.019,2.859,0.822,5.651,1.778,8.346c3.165,8.917,10.747,24.626,16.437,32.185l11.61-4.035
						c1.599-12.321-6.188-24.353-6.118-24.772c0.556-3.336,0.553-6.598,3.346-9.08c1.498-1.332,2.584-2.377,6.043-5.188
						C451.566,232.235,452.924,229.638,452.464,228.214z"/>
					<path style="fill:none;stroke:#000000;stroke-width:1.5;stroke-miterlimit:10;" d="M449.2,228.512c0,0-6.983,2.898-9.477,4.768
						s-7.026,7.178-7.898,10.045"/>
					<path style="fill:none;stroke:#000000;stroke-width:1.5;stroke-miterlimit:10;" d="M448.424,222.562
						c0,0-10.343,2.085-13.505,4.677s-7.007,6.972-7.811,9.475"/>
					<path style="fill:none;stroke:#000000;stroke-width:1.5;stroke-miterlimit:10;" d="M443.051,218.943
						c0,0-10.043,0.429-12.457,1.949c-2.413,1.52-7.721,6.573-9.935,12.109"/>
				</g>
				<path style="fill:none;stroke:#000000;stroke-width:1.5;stroke-miterlimit:10;" d="M612.648,267.686
					c0,0,19.799,4.442,24.531,8.701"/>
				
					<line style="fill:none;stroke:#000000;stroke-width:1.5;stroke-miterlimit:10;" x1="547.705" y1="285.585" x2="573.549" y2="293.347"/>
				<path d="M554.18,292.17c-0.318,0.997-1.178,1.613-1.922,1.376s-1.089-1.237-0.772-2.234s1.178-1.613,1.922-1.376
					S554.497,291.173,554.18,292.17z"/>
				<path d="M562.746,294.899c-0.318,0.997-1.178,1.613-1.922,1.376c-0.744-0.237-1.09-1.237-0.772-2.234
					c0.318-0.997,1.178-1.613,1.922-1.376S563.064,293.903,562.746,294.899z"/>
			</g>
		</g>
		<g>
			<g>
				<path style="fill:#D87D55;" d="M200.713,264.004l-6.244,23.236c0,0,29.099,16.846,43.047,14.577
					c13.948-2.269,18.153-5.824,18.153-5.824l3.599-34.294l-47.284-19.423l-14.667,10.922L200.713,264.004z"/>
				<path style="fill:#D87D55;" d="M272.485,258.61c2.917-13.333-3.95-32.058-10.029-44.85c-3.992-8.4-8.982-14.978-17.609-18.124
					c-14.054-5.125-36.39-3.367-43.653,12.68c-6.073,13.418-2.995,28.454,4.011,40.687c5.484,9.576,10.827,15.489,20.464,20.606
					c9.722,5.161,26.539,6.777,36.068,1.833C267.652,268.374,271.103,264.928,272.485,258.61z"/>
				<path style="fill:#6B3429;" d="M276.865,195.171c0.038-0.357,0.062-0.717,0.071-1.079c0.168-6.339-4.456-12.61-10.552-13.7
					c-2.781-0.497-5.668,0.005-8.441-0.534c-5.832-1.133-9.984-6.537-15.546-8.663c-10.356-3.959-18.607,6.25-27.276,9.945
					c-4.172,1.778-8.475,3.212-12.623,5.05c-6.449,2.857-12.589,6.856-16.841,12.587c-7.203,9.708-7.976,23.295-4.343,34.909
					c3.633,11.614,11.138,21.544,19.348,30.374c1.587-8.362,3.173-16.724,4.76-25.087c0.173-0.91,0.348-1.829,0.729-2.67
					c0.484-1.07,1.276-1.958,2.054-2.827c2.273-2.536,4.671-5.16,7.824-6.352c2.668-1.008,5.785-0.952,8.038-2.729
					c2.755-2.172,3.175-6.337,2.37-9.802c-0.67-2.882-1.785-6.514,0.494-8.337c3.088-2.471,7.496,2.173,11.27,1.092
					c1.259-0.361,2.251-1.321,3.298-2.123c2.312-1.772,5.148-3.111,8.071-3.205c2.397-0.077,4.703,0.975,6.447,2.625
					c2.526,2.391,4.739,2.874,8.442,2.689C270.834,207.014,276.22,201.278,276.865,195.171z"/>
				<path style="fill:#6B3429;" d="M217.309,257.161c1.977,0.248,3.792,1.433,5.771,1.839c3.023,0.62,6.363,0.69,9.167-0.827
					c5.09-2.753,7.421-6.665,12.047-10.079c2.78-2.051,6.19-3.39,9.408-4.469c6.227-2.088,11.686-2.937,18.178-3.295
					c0,0,2.607,7.876,2.763,8.728c0.607,3.318,1.03,6.703,0.872,10.087c-0.16,3.453-1.289,6.74-1.473,10.188
					c-0.178,3.344-1.299,6.025-3.848,8.16c-4.372,3.663-8.513,3.33-13.758,3.088c-3.959-0.182-7.51,2.009-11.383,2.437
					c-4.425,0.489-8.314-2.815-12.281-4.534c-1.005-0.435-4.977-0.376-6.015-0.715c-4.743-1.551-7.37-3.6-10.652-7.512
					c-3.282-3.912-4.551-9.012-6.596-13.761"/>
				<path style="fill:none;stroke:#000000;stroke-width:1.5;stroke-miterlimit:10;" d="M254.689,222.741
					c1.596,2.543,5.513,11.479,6.785,14.214c0.49,1.053,0.941,2.364,0.306,3.328c-0.404,0.614-1.134,0.878-1.82,1.074
					c-2.238,0.638-4.561,0.948-6.88,0.918"/>
				<g>
					<path style="fill:none;stroke:#F7B674;stroke-width:1.5;stroke-miterlimit:10;" d="M258.778,225.141
						c1.815,5.76,6.296,10.083,10.008,9.656c3.712-0.427,5.25-5.443,3.435-11.204c-1.815-5.76-6.296-10.084-10.008-9.656
						C258.501,214.365,256.963,219.381,258.778,225.141z"/>
					<path style="fill:none;stroke:#F7B674;stroke-width:1.5;stroke-miterlimit:10;" d="M233.646,228.034
						c1.815,5.76,7.245,9.974,12.129,9.412c4.884-0.562,7.371-5.688,5.556-11.448c-1.815-5.76-7.245-9.974-12.129-9.412
						C234.319,217.148,231.831,222.274,233.646,228.034z"/>
					
						<line style="fill:none;stroke:#F7B674;stroke-width:1.5;stroke-miterlimit:10;" x1="258.03" y1="221.067" x2="249.387" y2="222.062"/>
					
						<line style="fill:none;stroke:#F7B674;stroke-width:1.5;stroke-miterlimit:10;" x1="232.618" y1="224.772" x2="212.013" y2="235.714"/>
				</g>
				<g>
					<path style="fill:#D87D55;" d="M215.389,238.66c-2.884-4.182-8.341-5.763-11.725-4.343c-5.016,2.106-6.314,8.05-5.446,12.785
						c0.791,4.314,2.608,7.789,5.992,10.79c3.179,2.819,8.984,5.321,12.964,3.499c2.709-1.24,3.467-5.091,3.107-7.687"/>
					
						<line style="fill:none;stroke:#000000;stroke-width:1.5;stroke-miterlimit:10;" x1="216.88" y1="250.707" x2="203.091" y2="243.559"/>
					<path style="fill:none;stroke:#000000;stroke-width:1.5;stroke-miterlimit:10;" d="M220.666,254.751
						c-0.229,1.522-0.757,6.559-5.466,7.314c-2.14,0.343-6.578,0.472-12.518-5.68"/>
					<path style="fill:none;stroke:#000000;stroke-width:1.5;stroke-miterlimit:10;" d="M215.662,238.318
						c-1.347-1.372-6.45-6.917-13.757-3.003"/>
				</g>
				<path style="fill:none;stroke:#000000;stroke-width:1.5;stroke-miterlimit:10;" d="M252.682,252.134
					c4.368-2.223,9.283-3.249,14.13-2.95"/>
				<path style="fill:none;stroke:#000000;stroke-width:2;stroke-miterlimit:10;" d="M228.008,222.003
					c3.434-4.223,7.767-7.639,12.589-9.926"/>
				<path style="fill:none;stroke:#000000;stroke-width:2;stroke-miterlimit:10;" d="M253.329,209.645
					c4.031-0.166,8.245-0.286,11.878,1.959"/>
				<path d="M245.162,225.852c0.645,1.65,0.357,3.337-0.643,3.767c-1,0.43-2.334-0.559-2.979-2.21
					c-0.645-1.65-0.357-3.337,0.644-3.767C243.184,223.212,244.518,224.202,245.162,225.852z"/>
				<path d="M264.556,222.714c0.645,1.651,0.357,3.337-0.643,3.767c-1,0.43-2.334-0.559-2.979-2.21
					c-0.645-1.65-0.357-3.337,0.643-3.767C262.578,220.074,263.911,221.063,264.556,222.714z"/>
			</g>
			<g>
				<g>
					<path style="fill:#D87D55;" d="M400.827,330.075c8.822-11.918,20.313-22.499,34.584-27.694
						c0.622-0.226,1.288-0.445,1.943-0.315c0.978,0.195,1.644,1.142,1.792,2.09c0.147,0.947-0.112,1.9-0.37,2.82
						c0.118-0.424,3.846-1.801,4.438-2.079c0.21-0.099,0.424-0.199,0.656-0.235c0.741-0.113,1.419,0.462,1.811,1.082
						c1.152,1.822,0.508,3.857,0.126,5.781c1.12-0.769,2.83,0.12,3.297,1.376c0.467,1.255,0.061,2.636-0.434,3.87
						c-0.756,1.885-2.894,4.116-2.894,4.116s2.522-1.569,3.406-0.363c0.885,1.206-0.177,4.001-0.765,5.348
						c-3.25,7.432-8.637,14.361-11.51,24.372c-1.099,3.829-2.6,9.61-3.441,13.494c-1.573,7.267-1.259,7.303-4.704,13.945
						c-2.302,4.438-11.495,13.856-11.495,13.856l-32.899-25.33c0,0,6.33-3.618,6.7-8.604
						C391.21,355.711,390.225,355.536,400.827,330.075z"/>
					<path style="fill:#D87D55;" d="M380.243,372.019c0,0,6.375-6.021,9.798-21.305c1.006-4.492,3.897-15.588,5.875-19.753
						c2.808-5.913,8.152-11.595,13.769-18.471c0.804-0.984,3.656-3.395,5.163-2.952c1.524,0.448,1.79,2.179,1.52,4.151
						c-0.371,2.709-1.753,5.873-2.269,6.786c-1.793,3.173-3.563,6.071-3.091,9.675c0.402,3.073,2.033,5.827,3.398,8.616
						c3.789,7.74,5.7,16.372,5.53,24.971"/>
					<path style="fill:none;stroke:#000000;stroke-width:1.5;stroke-miterlimit:10;" d="M416.369,313.69
						c-0.371,2.709-1.753,5.873-2.269,6.786c-1.793,3.173-3.563,6.071-3.091,9.675c0.402,3.073,2.033,5.827,3.398,8.616
						c3.789,7.74,5.7,16.372,5.53,24.971"/>
					<path style="fill:none;stroke:#000000;stroke-width:1.5;stroke-miterlimit:10;" d="M438.366,306.967
						c-3.091,3.056-6.562,5.709-9.754,8.661c-3.192,2.953-10.318,10.198-12.055,14.164"/>
					<path style="fill:none;stroke:#000000;stroke-width:1.5;stroke-miterlimit:10;" d="M445.765,310.768
						c-1.958,2.363-4.585,4.069-6.951,6.033c-4.613,3.828-12.5,13.859-14.883,19.33"/>
					<path style="fill:none;stroke:#000000;stroke-width:1.5;stroke-miterlimit:10;" d="M448.417,317.549
						c-3.201,2.897-5.525,6.527-8.188,9.873c-2.662,3.345-7.747,10.454-8.67,14.613"/>
				</g>
				<polyline style="fill:#FFFFFF;" points="377.96,366.178 388.994,353.764 421.714,388.003 409.416,401.602 				"/>
				<path style="fill:#333E6D;" d="M262.093,301.128c0,0,22.698-1.243,34.947,6.531c12.288,7.798,15.364,22.635,23.391,56.716
					c7.888,33.491,10.488,43.463,10.488,43.463l55.305-51.839l33.094,38.122c0,0-21.004,24.276-48.891,54.364
					c-15.059,16.247-33.048,21.889-49.996,21.889c-32.177,0-47.538-39.098-56.29-72.056c-11.045-41.591-10.433-52.792-10.433-52.792
					"/>
				<path style="fill:#FFFFFF;" d="M291.22,352.173c-2.583,6.021-8.159,19.568-10.932,27.47
					c-2.773,7.902-13.476,90.789-13.476,90.789H127.911c0,0-1.794-71.974,4.305-106.97c6.099-34.996,6.099-34.996,6.099-34.996
					l47.288-39.71l49.959,13.252l31.25-1.682L291.22,352.173z"/>
				<g>
					<polygon style="fill:#5669AF;" points="244.785,330.675 248.126,313.879 226.238,313.879 230.568,330.675 226.868,430.333 
						243.18,449.441 256.232,432.063 					"/>
					
						<line style="fill:none;stroke:#000000;stroke-width:1.5;stroke-miterlimit:10;" x1="230.568" y1="330.675" x2="244.785" y2="330.675"/>
				</g>
				<path style="fill:#333E6D;" d="M212.013,470.432c-1.29-34.941-14.044-146.049-26.41-181.676l-21.548-3.789L129.68,470.432
					H212.013z"/>
				<polygon style="fill:#FFFFFF;" points="237.516,301.817 197.947,275.695 185.603,288.756 219.408,326.561 				"/>
				<polygon style="fill:#FFFFFF;" points="259.268,288.043 237.516,301.817 252.164,324.956 266.812,300.326 				"/>
				<polyline style="fill:none;stroke:#000000;stroke-width:1.5;stroke-miterlimit:10;" points="185.603,288.756 219.408,326.561 
					237.516,301.817 252.164,324.956 266.812,300.326 				"/>
				<path style="fill:#333E6D;" d="M267.384,301.055c0,0,0.362,45.282-1.026,84.489c-1.388,39.208-5.726,84.888-5.726,84.888
					s17.543,0.745,17.829,0c0.285-0.745,10.633-75.514,12.027-84.652c1.393-9.138,10.01-27.503,10.01-27.503l-11.298-54.192
					L267.384,301.055z"/>
				<path style="fill:none;stroke:#000000;stroke-width:1.5;stroke-miterlimit:10;" d="M278.461,470.432
					c0.285-0.745,10.633-75.514,12.027-84.652c1.393-9.138,10.01-27.503,10.01-27.503"/>
				<path style="fill:none;stroke:#000000;stroke-width:1.5;stroke-miterlimit:10;" d="M265.5,418.564
					c0,0,20.27-60.845,18.704-115.318"/>
				<path style="fill:none;stroke:#000000;stroke-width:1.5;stroke-miterlimit:10;" d="M166.548,285.405
					c0,0,16.485,91.522,40.02,139.487"/>
				
					<line style="fill:none;stroke:#000000;stroke-width:1.5;stroke-miterlimit:10;" x1="330.919" y1="407.838" x2="313.892" y2="422.837"/>
				
					<line style="fill:none;stroke:#000000;stroke-width:1.5;stroke-miterlimit:10;" x1="411.934" y1="386.927" x2="396.202" y2="403.888"/>
			</g>
			<g>
				<g>
					<path style="fill:#D87D55;" d="M233.213,422.837c13.846,1.9,27.902,3.86,40.71,9.694c11.698,5.328,17.809,9.487,25.531,20.133
						c1.086,1.497,5.574,7.043,4.109,8.828c-1.228,1.495-3.77,1.288-5.297,0.923c-2.362,2.277-4.522,1.97-7.779,0.365
						c-0.873,1.715-5.149,1.715-9.222,0.433c-1.41,1.397-4.064,2.494-8.209,2.202l-28.401-2.651l-29.476-0.349"/>
					<path style="fill:none;stroke:#000000;stroke-width:1.5;stroke-miterlimit:10;" d="M281.265,463.214
						c0,0-7.168-6.443-13.989-7.588c-6.821-1.145-15.824-2.146-15.824-2.146"/>
					<path style="fill:none;stroke:#000000;stroke-width:1.5;stroke-miterlimit:10;" d="M260.632,445.18
						c0,0,13.874,3.148,19.195,6.153c5.32,3.005,10.661,11.447,10.661,11.447"/>
					<path style="fill:none;stroke:#000000;stroke-width:1.5;stroke-miterlimit:10;" d="M270.141,438.169
						c0,0,14.774,4.436,20.347,10.588c5.573,6.153,7.779,13.658,7.779,13.658"/>
				</g>
				<polyline style="fill:#FFFFFF;" points="230.602,422.107 245.953,424.06 236.024,470.375 202.803,470.375 				"/>
				<path style="fill:#333E6D;" d="M164.897,285.09c0,0-17.446-1.542-27.815,1.774c-13.067,4.179-26.577,22.239-32.749,55.29
					c-8.605,46.078-10.847,73.455-11.761,82.738c-1.838,18.687,0.068,45.539,35.093,45.539c52.295,0,99.547,0,99.547,0
					l12.344-48.717l-78.857-10.391l7.427-62.927"/>
				<polyline style="fill:none;stroke:#000000;stroke-width:1.5;stroke-miterlimit:10;" points="239.555,421.715 160.698,411.324 
					168.124,348.397 				"/>
				<path style="fill:none;stroke:#000000;stroke-width:1.5;stroke-miterlimit:10;" d="M160.698,411.324
					c0,0-16.11-3.166-33.033,4.748"/>
				
					<line style="fill:none;stroke:#000000;stroke-width:1.5;stroke-miterlimit:10;" x1="231.024" y1="453.903" x2="210.829" y2="453.903"/>
				
					<line style="fill:none;stroke:#000000;stroke-width:1.5;stroke-miterlimit:10;" x1="225.415" y1="442.765" x2="222.969" y2="451.164"/>
				
					<line style="fill:none;stroke:#000000;stroke-width:1.5;stroke-miterlimit:10;" x1="216.216" y1="442.765" x2="213.77" y2="451.164"/>
			</g>
			<g>
				<path style="fill:#ACB7DD;" d="M332.597,376.708l-34.452,84.964h-77.479l0,0c0,4.838,3.576,8.76,7.987,8.76h65.94h42.226
					h108.895l36.694-90.495c1.352-3.334-0.873-7.09-4.199-7.09H338.014C335.672,372.848,333.549,374.36,332.597,376.708z"/>
				<path style="fill:none;stroke:#000000;stroke-width:1.5;stroke-miterlimit:10;" d="M345.135,372.848
					c-2.342,0-4.465,1.513-5.417,3.86l-34.452,84.964"/>
				
					<line style="fill:none;stroke:#000000;stroke-width:1.5;stroke-miterlimit:10;" x1="293.023" y1="465.236" x2="285.721" y2="465.236"/>
				
					<line style="fill:none;stroke:#000000;stroke-width:1.5;stroke-miterlimit:10;" x1="281.517" y1="465.236" x2="274.215" y2="465.236"/>
				
					<line style="fill:none;stroke:#000000;stroke-width:1.5;stroke-miterlimit:10;" x1="271.537" y1="465.236" x2="268.91" y2="465.236"/>
				
					<ellipse transform="matrix(0.9827 -0.1853 0.1853 0.9827 -71.1104 82.3184)" style="fill:#9BAAD3;" cx="404.895" cy="421.64" rx="11.527" ry="6.352"/>
			</g>
		</g>
		<g>
			<path style="fill:none;stroke:#EA7349;stroke-width:3;stroke-miterlimit:10;" d="M475.792,442.559
				c2.213-5.324,10.216-5.057,10.682,1.747c0.299,4.363-2.041,8.808-4.933,10.875c-3.658,2.615-8.249,2.359-12.178,0.493"/>
			<path style="fill:#EA7349;" d="M464.818,467.068h-17.457c-8.27,0-14.974-6.704-14.974-14.974v-18.168h47.405v18.168
				C479.792,460.364,473.088,467.068,464.818,467.068z"/>
			<path style="fill:#EA7349;" d="M483.058,470.368h-54.143c-4.047,0-7.328-3.281-7.328-7.328l0,0h68.799l0,0
				C490.386,467.087,487.105,470.368,483.058,470.368z"/>
			
				<line style="fill:none;stroke:#000000;stroke-width:1.5;stroke-miterlimit:10;" x1="436.843" y1="463.04" x2="475.127" y2="463.04"/>
		</g>
		
			<line style="fill:none;stroke:#000000;stroke-width:1.5;stroke-miterlimit:10;" x1="41.638" y1="470.368" x2="708.362" y2="470.368"/>
	</g>
	<g>
		<path style="fill:none;stroke:#6872F0;stroke-width:1.5;stroke-miterlimit:10;" d="M140.048,238.318
			c0,2.316-1.877,4.193-4.193,4.193c-2.316,0-4.193-1.877-4.193-4.193c0-2.316,1.877-4.193,4.193-4.193
			C138.17,234.125,140.048,236.002,140.048,238.318z"/>
		<path style="fill:none;stroke:#6872F0;stroke-width:1.5;stroke-miterlimit:10;" d="M345.22,324.418
			c0,2.316-1.877,4.193-4.193,4.193c-2.316,0-4.193-1.877-4.193-4.193c0-2.316,1.877-4.193,4.193-4.193
			C343.343,320.224,345.22,322.102,345.22,324.418z"/>
		<path style="fill:none;stroke:#6872F0;stroke-width:1.5;stroke-miterlimit:10;" d="M377.399,265.82
			c0,2.316-1.877,4.193-4.193,4.193c-2.316,0-4.193-1.877-4.193-4.193c0-2.316,1.877-4.193,4.193-4.193
			C375.522,261.626,377.399,263.504,377.399,265.82z"/>
		<path style="fill:none;stroke:#6872F0;stroke-width:1.5;stroke-miterlimit:10;" d="M698.853,288.756
			c0,2.316-1.877,4.193-4.193,4.193c-2.316,0-4.193-1.877-4.193-4.193c0-2.316,1.877-4.193,4.193-4.193
			C696.975,284.563,698.853,286.44,698.853,288.756z"/>
		<path style="fill:none;stroke:#6872F0;stroke-width:1.5;stroke-miterlimit:10;" d="M435.472,101.716
			c0,2.316-1.877,4.193-4.193,4.193c-2.316,0-4.193-1.877-4.193-4.193c0-2.316,1.877-4.193,4.193-4.193
			C433.594,97.523,435.472,99.4,435.472,101.716z"/>
		<path style="fill:none;stroke:#6872F0;stroke-width:1.5;stroke-miterlimit:10;" d="M274.352,142.779
			c0,3.784-3.068,6.851-6.851,6.851c-3.784,0-6.852-3.068-6.852-6.851c0-3.784,3.068-6.852,6.852-6.852
			C271.284,135.928,274.352,138.995,274.352,142.779z"/>
		<circle style="fill:none;stroke:#6872F0;stroke-width:1.5;stroke-miterlimit:10;" cx="701.511" cy="180.368" r="6.851"/>
		<g>
			
				<line style="fill:none;stroke:#C95050;stroke-width:1.5;stroke-miterlimit:10;" x1="345.135" y1="162.462" x2="345.135" y2="158.345"/>
			
				<line style="fill:none;stroke:#C95050;stroke-width:1.5;stroke-miterlimit:10;" x1="345.135" y1="169.471" x2="345.135" y2="165.355"/>
			
				<line style="fill:none;stroke:#C95050;stroke-width:1.5;stroke-miterlimit:10;" x1="346.581" y1="163.908" x2="350.697" y2="163.908"/>
			
				<line style="fill:none;stroke:#C95050;stroke-width:1.5;stroke-miterlimit:10;" x1="339.572" y1="163.908" x2="343.688" y2="163.908"/>
		</g>
		<g>
			
				<line style="fill:none;stroke:#C95050;stroke-width:1.5;stroke-miterlimit:10;" x1="493.727" y1="354.599" x2="493.727" y2="349.547"/>
			
				<line style="fill:none;stroke:#C95050;stroke-width:1.5;stroke-miterlimit:10;" x1="493.727" y1="363.199" x2="493.727" y2="358.148"/>
			
				<line style="fill:none;stroke:#C95050;stroke-width:1.5;stroke-miterlimit:10;" x1="495.502" y1="356.373" x2="500.553" y2="356.373"/>
			
				<line style="fill:none;stroke:#C95050;stroke-width:1.5;stroke-miterlimit:10;" x1="486.902" y1="356.373" x2="491.953" y2="356.373"/>
		</g>
		<g>
			
				<line style="fill:none;stroke:#C95050;stroke-width:1.5;stroke-miterlimit:10;" x1="701.511" y1="213.856" x2="701.511" y2="209.74"/>
			
				<line style="fill:none;stroke:#C95050;stroke-width:1.5;stroke-miterlimit:10;" x1="701.511" y1="220.865" x2="701.511" y2="216.749"/>
			
				<line style="fill:none;stroke:#C95050;stroke-width:1.5;stroke-miterlimit:10;" x1="702.957" y1="215.302" x2="707.074" y2="215.302"/>
			
				<line style="fill:none;stroke:#C95050;stroke-width:1.5;stroke-miterlimit:10;" x1="695.948" y1="215.302" x2="700.065" y2="215.302"/>
		</g>
		<g>
			
				<line style="fill:none;stroke:#C95050;stroke-width:1.5;stroke-miterlimit:10;" x1="175.161" y1="262.613" x2="175.161" y2="258.496"/>
			
				<line style="fill:none;stroke:#C95050;stroke-width:1.5;stroke-miterlimit:10;" x1="175.161" y1="269.622" x2="175.161" y2="265.505"/>
			
				<line style="fill:none;stroke:#C95050;stroke-width:1.5;stroke-miterlimit:10;" x1="176.607" y1="264.059" x2="180.724" y2="264.059"/>
			
				<line style="fill:none;stroke:#C95050;stroke-width:1.5;stroke-miterlimit:10;" x1="169.598" y1="264.059" x2="173.715" y2="264.059"/>
		</g>
		<g>
			
				<line style="fill:none;stroke:#C95050;stroke-width:1.5;stroke-miterlimit:10;" x1="482.811" y1="126.296" x2="482.811" y2="122.179"/>
			
				<line style="fill:none;stroke:#C95050;stroke-width:1.5;stroke-miterlimit:10;" x1="482.811" y1="133.305" x2="482.811" y2="129.188"/>
			
				<line style="fill:none;stroke:#C95050;stroke-width:1.5;stroke-miterlimit:10;" x1="484.257" y1="127.742" x2="488.374" y2="127.742"/>
			
				<line style="fill:none;stroke:#C95050;stroke-width:1.5;stroke-miterlimit:10;" x1="477.248" y1="127.742" x2="481.364" y2="127.742"/>
		</g>
		<g>
			
				<line style="fill:none;stroke:#C95050;stroke-width:1.5;stroke-miterlimit:10;" x1="661.07" y1="146.896" x2="661.07" y2="142.779"/>
			
				<line style="fill:none;stroke:#C95050;stroke-width:1.5;stroke-miterlimit:10;" x1="661.07" y1="153.905" x2="661.07" y2="149.788"/>
			
				<line style="fill:none;stroke:#C95050;stroke-width:1.5;stroke-miterlimit:10;" x1="662.517" y1="148.342" x2="666.633" y2="148.342"/>
			
				<line style="fill:none;stroke:#C95050;stroke-width:1.5;stroke-miterlimit:10;" x1="655.507" y1="148.342" x2="659.624" y2="148.342"/>
		</g>
		<g>
			
				<line style="fill:none;stroke:#C95050;stroke-width:1.5;stroke-miterlimit:10;" x1="312.731" y1="213.055" x2="312.731" y2="205.731"/>
			
				<line style="fill:none;stroke:#C95050;stroke-width:1.5;stroke-miterlimit:10;" x1="312.731" y1="225.524" x2="312.731" y2="218.2"/>
			
				<line style="fill:none;stroke:#C95050;stroke-width:1.5;stroke-miterlimit:10;" x1="315.304" y1="215.627" x2="322.627" y2="215.627"/>
			
				<line style="fill:none;stroke:#C95050;stroke-width:1.5;stroke-miterlimit:10;" x1="302.835" y1="215.627" x2="310.158" y2="215.627"/>
		</g>
		<g>
			
				<line style="fill:none;stroke:#C95050;stroke-width:1.5;stroke-miterlimit:10;" x1="289.372" y1="81.401" x2="289.372" y2="76.35"/>
			
				<line style="fill:none;stroke:#C95050;stroke-width:1.5;stroke-miterlimit:10;" x1="289.372" y1="90.001" x2="289.372" y2="84.95"/>
			
				<line style="fill:none;stroke:#C95050;stroke-width:1.5;stroke-miterlimit:10;" x1="291.147" y1="83.176" x2="296.198" y2="83.176"/>
			
				<line style="fill:none;stroke:#C95050;stroke-width:1.5;stroke-miterlimit:10;" x1="282.547" y1="83.176" x2="287.598" y2="83.176"/>
		</g>
		<g>
			
				<line style="fill:none;stroke:#C95050;stroke-width:1.5;stroke-miterlimit:10;" x1="513.505" y1="37.153" x2="513.505" y2="29.614"/>
			
				<line style="fill:none;stroke:#C95050;stroke-width:1.5;stroke-miterlimit:10;" x1="513.505" y1="49.989" x2="513.505" y2="42.45"/>
			
				<line style="fill:none;stroke:#C95050;stroke-width:1.5;stroke-miterlimit:10;" x1="516.154" y1="39.801" x2="523.693" y2="39.801"/>
			
				<line style="fill:none;stroke:#C95050;stroke-width:1.5;stroke-miterlimit:10;" x1="503.317" y1="39.801" x2="510.857" y2="39.801"/>
		</g>
	</g>
	<g>
		<defs>
			<rect id="SVGID_1_" width="750" height="500"/>
		</defs>
		<clipPath id="SVGID_00000165232903304829147670000010125117335659542417_">
			<use xlink:href="#SVGID_1_"  style="overflow:visible;"/>
		</clipPath>
		<g style="clip-path:url(#SVGID_00000165232903304829147670000010125117335659542417_);">
			<path style="fill:#A7AA67;" d="M26.855,202.18c1.972-3.537,4.038-7.019,6.232-10.423c9.955-15.443,21.559-29.767,33.86-43.391
				c14.936-16.543,31.024-32.217,43.524-50.67c1.581-2.334,3.156-4.882,3.166-7.701c0.045-12.326-22.698-1.778-27.766,0.418
				c-37.449,16.227-73.161,37.17-103.264,64.73C-47.277,182.5-71.842,217.05-84.516,255.929c-1.678,5.148-2.765,11.742,1.43,15.166
				c1.776,1.449,4.133,1.936,6.403,2.258c7.248,1.029,14.666,0.847,21.854-0.537c3.892,5.961,11.415,8.91,18.524,8.533
				s13.798-3.673,19.464-7.983c10.945-8.326,18.728-20.418,24.675-32.654C14.075,227.865,19.885,214.68,26.855,202.18z"/>
			<path style="fill:#757A47;" d="M3.848,215.981c9.137-31.152,32.032-61.235,57.83-80.647
				c15.219-11.451,30.575-22.719,45.93-33.987c-8.397,12.348-12.261,15.439-21.932,26.817
				c-9.319,10.964-28.639,34.977-36.946,46.726c-9.787,13.842-21.403,38.957-30.571,53.217
				c-4.249,6.609-21.068,30.776-21.068,30.776S-4.509,244.471,3.848,215.981z"/>
			<path style="fill:none;stroke:#000000;stroke-width:1.5;stroke-miterlimit:10;" d="M107.608,90.557
				C52.926,123.415,1.955,169.141-31.226,223.5c-26.658,43.671-41.719,92.801-54.779,141.926"/>
		</g>
		<g style="clip-path:url(#SVGID_00000165232903304829147670000010125117335659542417_);">
			<path style="fill:#A7AA67;" d="M201.905,122.851c-7.865,5.881-14.028,15.837-29.866,27.125
				c-20.957,14.938-36.223,19.984-60.299,28.422c-22.66,7.942-45.534,15.357-68.267,23.089c-11.57,3.935-26.014,8.775-31.657,20.695
				c-5.381,11.365-3.181,25.329-0.522,37.105c0.816,3.612,1.859,7.238,3.848,10.362c1.988,3.124,5.047,5.724,8.68,6.437
				c6.233,1.223,12.035-3.135,17-7.096c20.512-16.366,44.558-28.374,66.59-42.842c22.556-14.813,42.65-34.189,62.002-52.882
				c1.994-1.926,3.982-3.86,5.964-5.799c5.825-5.698,11.615-11.451,17.787-16.707c5.369-4.572,11.172-8.943,14.601-15.356
				c1.979-3.702,2.603-9.747,2.219-14.068C209.507,115.958,206.277,119.584,201.905,122.851z"/>
			<path style="fill:#757A47;" d="M209.948,125.95c0.152,10.893-4.817,24.513-12.335,34.085
				c-16.4,20.882-26.252,30.905-66.519,57.234c-16.026,10.479-31.655,21.784-45.526,35.103
				c-10.622,10.199-19.652,21.798-30.501,31.788c-11.218,10.33-23.051,19.992-35.416,28.918c-2.946,2.126-7.284,4.969-11.056,3.224
				c-3.367-1.558-4.232-6.069-5.808-9.052c-8.473-16.042-3.868-33.658,6.148-47.72c12.482-17.526,32.706-23.274,50.903-34.758
				c40.396-25.493,76.947-32.906,115.842-60.864C179.481,161.176,200.126,147.103,209.948,125.95z"/>
			<path style="fill:none;stroke:#000000;stroke-width:1.5;stroke-miterlimit:10;" d="M208.177,137.42
				c-10.446,27.721-43.889,49.788-62.821,62.043c-33.688,21.807-68.708,42.211-97.555,70.48
				c-19.888,19.49-36.068,42.395-48.588,67.232c-12.994,25.777-21.871,53.526-28.031,81.678c-0.881,4.025-1.706,8.062-2.479,12.109"
				/>
		</g>
		<g style="clip-path:url(#SVGID_00000165232903304829147670000010125117335659542417_);">
			<path style="fill:#A7AA67;" d="M27.247,400.25c12.702,11.038,33.839,14.188,50.478,21.915
				c11.251,5.225,20.366,12.526,30.36,18.981c10.314,6.661,21.611,12.445,32.881,18.213c2.4,1.228,5.135,2.517,8.021,2.164
				c2.727-0.333,4.795-2.128,5.557-4.077c0.762-1.949,0.45-4.032-0.027-6.03c-2.004-8.409-6.757-16.329-12.046-23.934
				c-7.158-10.291-15.362-20.17-23.556-30.037c-5.867-7.064-11.774-14.168-19.227-20.375c-5.093-4.241-11.06-8.115-18.274-10.101
				c-4.313-1.188-10.217-1.256-12.42,1.711c-1.849,2.49,0.081,5.615-0.729,8.387C50.685,373.884,6.406,382.139,27.247,400.25z"/>
			<path style="fill:#757A47;" d="M111.054,431.404c-4.141-3.632-9.684-6.306-15.239-8.718c-12.642-5.49-28.954-8.152-43.478-9.776
				c0,0,21.007,8.733,32.065,14.914c6.123,3.423,12.43,6.67,18.398,10.237c7.123,4.257,14.192,8.555,21.405,12.73
				c6.865,3.974,12.256,7.654,20.32,10.196C131.937,452.594,122.465,441.412,111.054,431.404z"/>
			<path style="fill:none;stroke:#000000;stroke-width:1.5;stroke-miterlimit:10;" d="M-13.485,387.372
				c9.98-10.813,23.699-21,40.688-22.089c6.299-0.404,12.652,0.496,18.645,2.068c24.24,6.357,40.802,22.231,55.087,36.947
				c17.325,17.848,33.421,36.325,48.969,55.006"/>
		</g>
		<g style="clip-path:url(#SVGID_00000165232903304829147670000010125117335659542417_);">
			<path style="fill:#A7AA67;" d="M31.423,300.286c8.515-9.366,21.416-13.23,33.079-16.577c14.692-4.216,29.203-9.066,43.479-14.53
				c5.931-2.27,11.832-4.651,17.475-7.566c11.648-6.017,22.052-14.233,33.711-20.229c0.778-0.4,1.675-0.8,2.499-0.504
				c1.402,0.503,1.446,2.457,1.132,3.913c-2.406,11.149-11.249,21.874-18.134,30.721c-8.209,10.548-17.542,20.762-28.391,28.582
				c-6.289,4.533-12.878,9.249-19.467,13.315c-4.343,2.68-8.826,5.149-13.415,7.381c-7.728,3.759-15.467,8.16-23.668,10.79
				c-2.759,0.885-5.599,1.621-8.512,2.125c-4.186,0.725-9.014,0.747-11.915-1.634c-2.019-1.658-2.811-3.962-2.808-6.228
				c0.004-3.63,0.817-7.539,2.291-10.858c1.052-2.368,5.111-5.949,5.111-5.949s-6.335-1.699-10.194-2.584
				c-2.837-0.651-5.763-2.884-4.731-6.109C29.445,302.839,30.319,301.499,31.423,300.286z"/>
			<path style="fill:none;stroke:#000000;stroke-width:1.5;stroke-miterlimit:10;" d="M162.161,241.161
				c-32.826,32.064-75.448,51.484-116.781,71.155c-9.699,4.616-18.084,9.781-26.406,16.544
				c-8.003,6.504-15.518,13.624-22.417,21.308c-10.836,12.07-19.196,25.763-24.449,40.291"/>
			<path style="fill:#757A47;" d="M79.435,326.757c8.145-6.659,13.71-14.314,21.529-21.352
				c18.976-17.081,41.687-26.198,58.114-50.653c-5.262,15.3-21.001,35.15-35.692,46.745c-5.98,4.72-12.094,9.3-18.646,13.189
				C97.968,318.706,86.925,324.325,79.435,326.757"/>
		</g>
		<g style="clip-path:url(#SVGID_00000165232903304829147670000010125117335659542417_);">
			<path style="fill:#A7AA67;" d="M770.169,365.185c-7.025-9.226-15.35-17.46-24.652-24.384
				c-16.079-11.969-34.869-19.916-50.888-31.965c-7.836-5.894-15.15-12.847-24.302-16.364c-5.853-2.249,2.993,15.925,4.005,17.441
				c5.187,7.768,6.788,10.667,12.401,18.743l9.523,14.017c16.158,21.815,34.247,46.036,56.301,61.76
				c2.336,1.666,5.275,2.2,8.118,2.58c1.541,0.206,3.135,0.375,4.628-0.061c2.335-0.681,3.993-2.716,4.86-4.91
				c0.876-2.219,1.059-4.641,1.232-7.019c2.339,2.218,5.606,3.425,8.825,3.261c0.441-0.022,0.909-0.08,1.254-0.356
				c0.316-0.253,0.478-0.648,0.607-1.032C785.712,386.125,776.313,373.253,770.169,365.185z"/>
			<path style="fill:none;stroke:#000000;stroke-width:1.5;stroke-miterlimit:10;" d="M669.493,292.283
				c29.025,38.056,125.606,86.907,114.673,155.23"/>
			<path style="fill:#757A47;" d="M686.055,333.808c-8.497-12.625-12.743-19.7-15.863-33.045
				c12.637,23.243,21.029,28.56,44.668,51.709c8.775,8.593,27.41,24.391,33.903,34.816c1.861,2.989,11.252,17.071,5.97,18.768
				c-4.454,1.431-15.09-9.203-18.088-11.703c-12.909-10.76-23.942-23.578-34.004-36.985
				C696.874,349.685,691.417,341.776,686.055,333.808z"/>
		</g>
		<g style="clip-path:url(#SVGID_00000165232903304829147670000010125117335659542417_);">
			<path style="fill:#A7AA67;" d="M782.44,379.312c-14.279-13.407-19.28-36.614-29.686-54.574
				c-7.037-12.144-16.519-21.802-25.005-32.482c-8.757-11.022-16.485-23.184-24.191-35.317c-1.641-2.583-3.374-5.535-3.092-8.75
				c0.266-3.038,2.37-5.432,4.732-6.391c2.362-0.958,4.947-0.735,7.434-0.326c10.472,1.723,20.487,6.516,30.141,11.922
				c13.065,7.315,25.677,15.813,38.273,24.301c9.018,6.077,18.088,12.196,26.133,20.079c5.497,5.387,10.588,11.762,13.419,19.629
				c1.692,4.703,2.089,11.234-1.452,13.847c-2.971,2.193-6.926,0.241-10.3,1.301C813.703,351.818,805.868,401.31,782.44,379.312z"/>
			<path style="fill:#757A47;" d="M739.602,288.395c4.696,4.368,8.286,10.346,11.553,16.351
				c7.436,13.668,11.581,31.564,14.351,47.543c0,0-11.876-22.734-20.081-34.608c-4.543-6.575-8.88-13.364-13.593-19.759
				c-5.625-7.632-11.296-15.203-16.825-22.939c-5.262-7.364-10.084-13.113-13.643-21.888
				C712.375,266.532,726.662,276.357,739.602,288.395z"/>
			<path style="fill:none;stroke:#000000;stroke-width:1.5;stroke-miterlimit:10;" d="M800.47,423.633
				c12.801-11.682,24.633-27.466,25.077-46.332c0.165-6.996-1.281-13.974-3.535-20.514c-9.119-26.453-29.563-43.846-48.46-58.789
				c-22.918-18.123-46.547-34.847-70.398-50.954"/>
		</g>
	</g>
</g>
</svg>
